<svg width="80" height="80" viewBox="0 0 80 80" fill="none" xmlns="http://www.w3.org/2000/svg">
<circle cx="40" cy="40" r="40" fill="#FFD0C7"/>
<path d="M57.5922 23.7255L43.6647 20.4108C42.7476 20.2423 42.2227 20.6235 41.9576 21.3058L41.7504 21.8582C42.278 22.7891 41.8029 24.4189 41.0432 24.8691C41.22 26.5983 41.1758 27.4325 40.988 27.6646C40.8001 27.8966 40.3609 28.0071 39.8389 27.9242C39.8932 28.288 39.9669 28.6485 40.0599 29.0043C40.2542 29.021 40.4471 29.0514 40.6372 29.0955L43.4879 21.6511L56.8795 24.9023L52.656 36.957L48.7528 35.783C48.4517 36.1725 48.1258 36.5868 47.7722 37.0205L52.6808 38.4956C53.4322 38.7221 54.1531 38.479 54.4874 37.573L58.6308 25.6315C58.9236 24.8111 58.8435 24.0322 57.5922 23.7255ZM56.0619 31.4904C56.0452 31.5529 56.0159 31.6114 55.9757 31.6621C55.9354 31.7128 55.8853 31.7547 55.8282 31.7852C55.7711 31.8158 55.7084 31.8342 55.6439 31.8395C55.5794 31.8447 55.5144 31.8367 55.4532 31.8158C55.3919 31.795 55.3356 31.7617 55.2877 31.7182C55.2398 31.6746 55.2014 31.6217 55.1748 31.5627C55.1482 31.5037 55.134 31.4399 55.1331 31.3752C55.1323 31.3104 55.1447 31.2462 55.1696 31.1865C55.1863 31.124 55.2157 31.0655 55.2559 31.0148C55.2961 30.9641 55.3463 30.9222 55.4033 30.8917C55.4604 30.8611 55.5231 30.8427 55.5877 30.8374C55.6522 30.8322 55.7171 30.8402 55.7783 30.8611C55.8396 30.8819 55.8959 30.9152 55.9438 30.9587C55.9917 31.0022 56.0301 31.0552 56.0567 31.1142C56.0833 31.1732 56.0975 31.237 56.0984 31.3017C56.0993 31.3664 56.0868 31.4307 56.0619 31.4904Z" fill="#3B29AB"/>
<path d="M50.0045 32.8715C50.1009 33.2068 50.1346 33.5571 50.1039 33.9046C49.1295 35.3312 48.0754 36.7016 46.9466 38.0094C45.6345 39.5342 44.4799 39.6668 43.1236 38.3271C42.2949 37.4984 40.1154 34.4985 39.5326 33.5815C39.6616 34.589 39.7207 35.6043 39.7094 36.62C39.6818 36.6946 39.6293 36.8465 39.6293 36.8465C37.6266 36.4377 35.4085 36.5482 33.6075 37.399C33.5508 36.0936 33.3901 34.7949 33.1268 33.5152C32.4364 34.2965 31.6983 35.0345 30.917 35.725C30.4916 35.8714 30.0883 36.0012 29.812 36.1172C29.7402 36.8216 29.6214 39.9154 29.6076 41.2441C29.6076 41.0562 29.3314 40.838 28.6878 40.6916C27.9091 40.5499 27.116 40.5035 26.326 40.5535C25.4973 40.6087 25.1438 40.7911 25.1189 40.9817C25.1382 39.5103 25.2405 38.0412 25.4255 36.5813C25.7017 34.4847 25.8537 33.819 28.0276 32.4379C30.5942 30.8385 33.444 29.747 36.4222 29.2225C37.6227 29.0119 38.8432 28.9387 40.0602 29.0043C41.6098 29.1397 42.3612 29.8883 44.8307 33.482C45.2671 32.8992 46.6566 31.3688 47.0599 30.9131C47.988 30.6617 49.5874 31.4462 50.0045 32.8715Z" fill="#FFD0C7"/>
<path d="M50.5923 61.5995C50.4321 60.6465 43.1728 58.4919 42.9297 59.2709C42.9905 58.8455 43.2418 56.887 43.3164 56.4257C44.3207 56.3854 45.3261 56.467 46.3107 56.6688C46.2867 57.0493 46.3983 57.4261 46.6256 57.7323C47.6394 59.1134 50.631 60.2183 50.5923 61.5995Z" fill="#FFD0C7"/>
<path d="M23.6821 58.0969C23.4492 58.1444 23.2325 58.2512 23.053 58.4071C22.8734 58.5629 22.7372 58.7624 22.6573 58.9863C22.4573 59.5204 22.3238 60.077 22.2596 60.6437C22.0717 61.9337 21.7264 63.4944 20.8784 63.859C21.79 63.1988 21.3093 55.6909 20.3867 55.6909C21.0165 55.55 21.4336 55.4147 23.0827 55.0417C23.4417 56.0223 23.644 57.0533 23.6821 58.0969Z" fill="#FFD0C7"/>
<path d="M53.2502 25.5348C54.9794 26.9326 53.4352 29.4269 51.6895 28.8966C51.5762 28.6701 51.4326 28.3994 51.253 28.0679C51.2387 27.7696 51.1514 27.4793 50.9989 27.2226C50.7367 27.1103 50.4554 27.0493 50.1702 27.0431C50.0763 25.6288 51.9381 24.4714 53.2502 25.5348Z" fill="#3B29AB"/>
<path d="M47.4243 27.2171L47.8414 27.6673C47.5651 28.2944 47.3276 28.6618 47.3248 28.8607C47.3248 29.3606 47.474 29.8882 47.4215 30.8689C47.2986 30.8661 47.176 30.88 47.0569 30.9103L46.5541 31.4904C45.5459 31.8163 43.5985 31.0014 43.5156 29.0043C43.4189 26.7061 45.7089 25.5459 47.0707 26.1287L47.4243 27.2171Z" fill="#3B29AB"/>
<path d="M19.1273 52.8595L16.7158 51.1718L18.4036 48.7603C18.4183 48.7398 18.4242 48.7143 18.42 48.6894C18.4159 48.6645 18.402 48.6423 18.3815 48.6277C18.361 48.613 18.3355 48.6071 18.3106 48.6113C18.2858 48.6154 18.2636 48.6293 18.2489 48.6498L16.5584 51.0613L14.1497 49.3735C14.1394 49.3662 14.1278 49.3611 14.1155 49.3584C14.1032 49.3557 14.0905 49.3555 14.0781 49.3579C14.0657 49.3602 14.054 49.365 14.0435 49.3719C14.033 49.3789 14.024 49.3879 14.0171 49.3984C14.0028 49.419 13.9972 49.4444 14.0013 49.4691C14.0054 49.4939 14.019 49.516 14.0392 49.531L16.4507 51.2187L14.7629 53.6275C14.7526 53.6416 14.7465 53.6583 14.7452 53.6756C14.7439 53.693 14.7474 53.7105 14.7555 53.7259C14.7635 53.7414 14.7757 53.7544 14.7907 53.7633C14.8056 53.7723 14.8228 53.7769 14.8402 53.7766C14.8556 53.7766 14.8709 53.7732 14.8847 53.7665C14.8986 53.7598 14.9108 53.75 14.9204 53.7379L16.6054 51.3265C19.2516 53.18 19.0334 53.0363 19.0666 53.0363C19.0893 53.0417 19.1131 53.0385 19.1336 53.0272C19.154 53.016 19.1695 52.9975 19.1771 52.9755C19.1847 52.9534 19.1838 52.9293 19.1746 52.9079C19.1654 52.8865 19.1485 52.8692 19.1273 52.8595Z" fill="#3B29AB"/>
<path d="M51.4434 41.6612C51.4414 41.6487 51.4369 41.6369 51.4302 41.6262C51.4236 41.6155 51.4148 41.6063 51.4045 41.5991C51.3942 41.5919 51.3825 41.5868 51.3702 41.5842C51.3579 41.5816 51.3452 41.5814 51.3329 41.5838L49.7501 41.8601L49.4739 40.2745C49.4691 40.2497 49.455 40.2278 49.4343 40.2134C49.4137 40.1989 49.3882 40.1931 49.3634 40.1971C49.3509 40.1991 49.339 40.2036 49.3284 40.2103C49.3177 40.217 49.3085 40.2257 49.3013 40.236C49.2941 40.2463 49.289 40.258 49.2864 40.2703C49.2838 40.2826 49.2836 40.2953 49.286 40.3076L49.5622 41.8932L47.9767 42.1694C47.9518 42.1716 47.9288 42.1836 47.9127 42.2028C47.8966 42.222 47.8889 42.2467 47.8911 42.2716C47.8932 42.2965 47.9053 42.3196 47.9244 42.3356C47.9436 42.3517 47.9683 42.3595 47.9933 42.3573C48.0154 42.3573 48.0098 42.3573 49.5954 42.081L49.8716 43.6638C49.8755 43.686 49.887 43.7062 49.9041 43.7208C49.9213 43.7355 49.943 43.7436 49.9655 43.7439C49.9795 43.7438 49.9933 43.7405 50.0059 43.7345C50.0185 43.7285 50.0297 43.7198 50.0386 43.709C50.0476 43.6982 50.054 43.6856 50.0576 43.6721C50.0612 43.6586 50.0619 43.6445 50.0595 43.6307L49.7832 42.0479L51.366 41.7717C51.3784 41.7697 51.3903 41.7652 51.401 41.7585C51.4117 41.7518 51.4209 41.7431 51.4281 41.7328C51.4353 41.7225 51.4404 41.7108 51.443 41.6985C51.4456 41.6862 51.4458 41.6735 51.4434 41.6612Z" fill="#3B29AB"/>
<path d="M21.785 33.9295C21.1726 33.9295 20.5739 33.7479 20.0647 33.4076C19.5554 33.0674 19.1586 32.5837 18.9242 32.0179C18.6898 31.4521 18.6285 30.8295 18.748 30.2288C18.8675 29.6282 19.1624 29.0764 19.5954 28.6433C20.0285 28.2103 20.5802 27.9154 21.1809 27.7959C21.7816 27.6764 22.4042 27.7377 22.97 27.9721C23.5358 28.2065 24.0194 28.6034 24.3597 29.1126C24.7 29.6218 24.8816 30.2205 24.8816 30.8329C24.8808 31.654 24.5544 32.4412 23.9738 33.0217C23.3932 33.6023 22.606 33.9287 21.785 33.9295ZM21.785 27.927C21.2095 27.9264 20.6467 28.0966 20.168 28.416C19.6892 28.7354 19.316 29.1897 19.0955 29.7213C18.875 30.2529 18.8172 30.838 18.9293 31.4025C19.0415 31.967 19.3185 32.4855 19.7255 32.8925C20.1324 33.2994 20.651 33.5765 21.2155 33.6886C21.78 33.8008 22.365 33.743 22.8966 33.5225C23.4283 33.302 23.8825 32.9287 24.2019 32.45C24.5213 31.9712 24.6915 31.4085 24.691 30.8329C24.6902 30.0625 24.3838 29.3237 23.839 28.7789C23.2942 28.2341 22.5555 27.9277 21.785 27.927Z" fill="#3B29AB"/>
<path d="M34.7506 55.2462C34.7262 55.2402 34.7049 55.2253 34.691 55.2042C34.6772 55.1832 34.6718 55.1577 34.6761 55.1329C34.6814 55.1081 34.6962 55.0864 34.7174 55.0725C34.7386 55.0585 34.7644 55.0534 34.7893 55.0583C37.2117 55.5446 39.6808 55.7596 42.1508 55.6992C42.1632 55.6988 42.1755 55.7009 42.187 55.7053C42.1985 55.7097 42.2091 55.7163 42.2181 55.7247C42.227 55.7332 42.2343 55.7434 42.2393 55.7546C42.2444 55.7659 42.2472 55.778 42.2475 55.7904C42.2476 55.8158 42.2378 55.8403 42.2204 55.8588C42.2029 55.8773 42.179 55.8884 42.1536 55.8898C39.6697 55.9505 37.1868 55.7346 34.7506 55.2462Z" fill="#3B29AB"/>
<path d="M47.3606 55.26C47.3556 55.2355 47.3602 55.21 47.3736 55.1889C47.387 55.1678 47.4081 55.1527 47.4324 55.1467C60.092 52.3375 65.3349 36.968 57.4236 24.9465C54.2856 20.1649 46.9794 16.1347 40.7918 15.7591C35.223 15.4221 32.2701 17.0573 32.016 20.629C31.7618 24.2007 29.61 24.8857 26.1544 23.8581C22.6987 22.8306 19.1961 23.6233 17.0388 25.9243C14.3179 28.8192 13.956 33.529 16.0222 39.1834C18.2321 45.2466 22.4087 49.9398 28.0907 52.7601C28.1134 52.7711 28.1309 52.7907 28.1391 52.8145C28.1474 52.8383 28.1459 52.8645 28.1349 52.8872C28.1239 52.9099 28.1044 52.9273 28.0806 52.9356C28.0567 52.9439 28.0306 52.9424 28.0079 52.9314C22.2789 50.089 18.0636 45.3571 15.8537 39.2497C13.0334 31.5152 15.3013 27.4961 16.9117 25.789C19.1215 23.4327 22.7125 22.6234 26.2289 23.6703C29.5409 24.6675 31.5795 24.104 31.8254 20.6152C32.1016 16.922 35.1097 15.2232 40.8029 15.5685C47.0429 15.9497 54.4155 20.0213 57.5838 24.8415C65.5945 37.0343 60.1997 52.5087 47.4738 55.3318C47.4617 55.3347 47.449 55.335 47.4367 55.333C47.4244 55.3309 47.4126 55.3264 47.4021 55.3197C47.3916 55.313 47.3825 55.3043 47.3753 55.294C47.3682 55.2838 47.3632 55.2722 47.3606 55.26Z" fill="#3B29AB"/>
<path d="M25.6658 17.9551C23.1383 17.2617 23.3206 17.3059 23.2902 17.3115C13.6995 19.0793 17.122 18.3888 16.3568 18.5352C16.2103 18.5611 16.0702 18.6157 15.9448 18.6957C15.8193 18.7757 15.7108 18.8797 15.6255 19.0017C15.4533 19.248 15.386 19.5527 15.4383 19.8486C15.4907 20.1446 15.6585 20.4077 15.9049 20.5799C16.1512 20.7522 16.4558 20.8195 16.7518 20.7671C24.2294 19.4523 23.6852 19.5572 23.7432 19.513L25.6961 18.1319C25.7126 18.1217 25.7256 18.1069 25.7335 18.0894C25.7414 18.0718 25.7439 18.0522 25.7407 18.0332C25.7374 18.0142 25.7285 17.9966 25.7152 17.9827C25.7018 17.9688 25.6846 17.9592 25.6658 17.9551ZM18.3098 20.3113L17.981 18.4523L23.2294 17.5269L23.5581 19.386L18.3098 20.3113ZM17.133 20.5185L16.8071 18.6595L17.7904 18.4854L18.1192 20.3445L17.133 20.5185ZM16.7159 20.5903C16.4742 20.623 16.2292 20.561 16.0321 20.4172C15.8351 20.2733 15.7014 20.0588 15.6589 19.8186C15.6164 19.5784 15.6685 19.3311 15.8043 19.1284C15.94 18.9258 16.1489 18.7834 16.3872 18.7313L16.6192 18.6926L16.9452 20.5516L16.7159 20.5903ZM23.7321 19.2976L23.4228 17.549L25.4199 18.1015L23.7321 19.2976Z" fill="#3B29AB"/>
<path d="M61.6504 21.1373C61.4888 20.2288 61.2552 19.3347 60.9516 18.4634C61.5897 17.0518 60.5897 15.5768 59.1561 15.0077C59.139 15.0003 59.12 14.9982 59.1017 15.0016C59.0834 15.005 59.0664 15.0137 59.0531 15.0268C59.0398 15.0398 59.0306 15.0565 59.0268 15.0748C59.023 15.093 59.0247 15.112 59.0318 15.1293C59.4931 16.3143 58.3246 17.5048 59.5566 18.7203C59.5726 19.6462 59.6584 20.5696 59.8135 21.4826C60.0897 23.0902 60.877 26.3912 61.5261 26.9602C61.7112 27.1232 61.8631 27.0403 61.9543 26.811C62.3106 25.9022 61.9267 22.698 61.6504 21.1373ZM59.7472 18.7534L60.7886 18.5739C61.0267 19.285 61.225 20.009 61.3825 20.7423L59.9323 20.9992C59.8299 20.2545 59.7681 19.5048 59.7472 18.7534ZM61.5841 26.7641C61.225 26.3387 60.4958 24.22 60.0013 21.4356L59.9488 21.187L61.4073 20.9301C61.4239 21.0102 61.4377 21.0903 61.4543 21.1704C61.9349 23.9051 61.9819 26.1094 61.7996 26.695C61.7526 26.869 61.6836 26.8746 61.5841 26.7586V26.7641Z" fill="#3B29AB"/>
<path d="M53.1955 31.924L51.9028 30.518C52.295 29.9435 52.2121 29.623 51.3503 28.032C51.3379 27.7181 51.2426 27.4131 51.0741 27.148C50.9304 27.0044 50.0741 26.8967 48.5272 26.8248C48.1985 26.4657 48.2096 26.474 48.1819 26.463L47.1184 26.0155C47.1015 26.009 47.0831 26.0074 47.0653 26.0108C47.0475 26.0143 47.031 26.0227 47.0177 26.0351C47.0045 26.0475 46.995 26.0634 46.9903 26.0809C46.9857 26.0984 46.986 26.1169 46.9914 26.1343L47.3477 27.2392C47.3477 27.2696 47.3477 27.2392 47.7372 27.6784C47.461 28.2889 47.24 28.6341 47.24 28.8551C47.24 29.3496 47.3809 29.8496 47.3394 30.7694C47.2387 30.7738 47.1388 30.7886 47.0411 30.8136C47.0235 30.819 47.0074 30.8284 46.9941 30.8412C46.5853 31.3108 45.3368 32.6671 44.8395 33.3273C42.4363 29.833 41.6629 29.0651 40.0884 28.9076C40.0359 28.6314 39.9917 28.322 39.9586 28.0292C40.2956 28.0706 40.6989 28.0817 40.9475 27.8552C41.3811 27.4602 41.2403 26.4961 41.1519 24.9133C42.3341 24.1288 42.7651 20.8666 40.1602 21.0461C40.3895 18.2396 36.4256 17.7811 36.0858 20.0986C33.9367 18.6401 30.7988 21.0875 32.8539 22.8361C31.7076 23.0847 31.3954 24.5515 32.4948 24.7476C29.7325 26.9215 31.8954 31.1865 37.8924 27.8193C37.2412 28.3357 36.5544 28.8055 35.8372 29.2253C33.0562 29.7912 30.4003 30.8553 27.9978 32.366C25.7879 33.7472 25.6001 34.4737 25.3487 36.5647C25.1607 38.0307 25.0583 39.5065 25.0421 40.9844C25.039 41.0269 25.0445 41.0696 25.0583 41.1099C25.0721 41.1503 25.0938 41.1874 25.1222 41.2192C25.3419 41.4242 25.6261 41.5463 25.9261 41.5645C25.6333 41.791 25.1581 42.1169 25.0477 42.3932C24.893 42.7992 24.7908 43.0727 24.5836 43.5672C24.5366 43.6832 24.3902 44.0395 24.5836 44.1555C24.9095 44.3544 25.6885 43.4622 25.9178 43.1832C26.0242 43.0552 26.1698 42.9659 26.3321 42.9291C26.1802 43.2016 26.0747 43.4975 26.02 43.8047C25.481 44.0593 24.9063 44.2298 24.3156 44.3102C23.8985 44.3737 23.6858 44.4925 23.6886 44.6638C23.6914 44.835 23.882 44.94 24.2024 44.9787C24.4369 44.9939 24.6722 44.9939 24.9068 44.9787C24.7963 45.0367 24.6913 45.0837 24.5919 45.1279C24.125 45.3212 23.8626 45.5726 23.9206 45.7632C23.9455 45.8405 24.0228 45.9206 24.2355 45.9206C24.7391 45.8522 25.2308 45.7146 25.6968 45.5118C25.5062 45.7162 25.3405 45.8764 25.172 46.0311C24.741 46.4344 24.5698 46.7659 24.6996 46.9427C24.8294 47.1195 25.1858 46.9896 25.3957 46.8681C25.8041 46.6288 26.1888 46.3513 26.5448 46.0394C26.4399 46.2733 26.3294 46.5053 26.2133 46.7355C25.9371 47.2548 25.8846 47.5642 26.0504 47.6747C26.2631 47.8183 26.6249 47.4924 26.799 47.288C27.4895 46.4593 28.6939 44.5257 28.8099 44.0809C28.8928 43.7798 28.8734 42.6142 28.8431 41.7357C29.3458 41.6998 29.6994 41.5148 29.7187 41.2662C29.7187 41.2385 29.7905 37.5895 29.9176 36.1863C31.0272 35.7613 32.1575 35.3926 33.3042 35.0814C33.4091 35.8382 33.4865 36.6172 33.5141 37.3216C32.1605 37.9533 31.1076 39.0894 30.5805 40.4872C29.3928 43.6279 29.8154 47.8598 30.0723 52.2877L22.1887 54.0584C21.7522 54.1412 21.6113 54.8097 21.6555 55.2766C21.4125 55.3373 20.5782 55.5528 20.3628 55.5997C19.686 55.6218 19.5838 57.572 19.5811 58.7377C19.5811 60.5995 19.8573 63.2458 20.4567 63.8673C20.5084 63.9351 20.5839 63.9808 20.668 63.9952C20.7521 64.0095 20.8384 63.9915 20.9097 63.9447C21.8075 63.5552 22.1555 62.011 22.3572 60.6603C22.4183 60.1811 22.5199 59.708 22.661 59.246C22.7012 59.3561 22.7704 59.4532 22.8614 59.5272C22.9523 59.6011 23.0616 59.649 23.1776 59.6658C23.266 59.6658 23.0312 59.6935 25.0117 59.2626C26.9923 58.8316 29.9397 58.1908 31.7158 57.6742C34.1577 56.9698 34.771 55.9395 35.3068 53.7462C35.6549 52.2933 36.8123 47.4206 37.0554 46.404C38.1852 46.7245 40.4309 47.473 42.0745 48.0393C42.1214 49.031 42.1076 54.8291 42.0745 56.956C42.0745 57.3787 42.6463 57.6107 43.0579 57.7019C43.0109 58.0389 42.8838 59.0581 42.8535 59.2764C42.6794 59.8896 44.3451 60.5691 45.7787 61.0332C46.6489 61.3094 50.8255 62.5193 50.7067 61.6188C50.7398 60.1962 47.9913 59.2101 46.8395 57.8455C47.1544 57.8206 47.5659 57.7129 47.5715 57.398V49.2382C47.5715 46.2576 47.3836 45.5146 45.2069 43.7136C43.2011 42.0977 41.1078 40.5937 38.9365 39.2082C39.384 37.7663 39.8564 36.4653 40.4226 35.0399C41.2845 36.2498 42.4584 37.8022 43.0551 38.3934C44.5025 39.8132 45.7235 39.5894 47.0162 38.0729C48.1489 36.7698 49.2049 35.402 50.1791 33.9764C50.1898 33.9631 50.1957 33.9466 50.1957 33.9295C50.2244 33.5821 50.1916 33.2324 50.099 32.8964C50.2288 32.6063 50.7813 32.0207 51.2039 31.4821L52.3447 32.7224C52.3962 32.778 52.4582 32.823 52.5271 32.8548C52.596 32.8865 52.6705 32.9043 52.7463 32.9073C52.8221 32.9102 52.8977 32.8982 52.9689 32.8719C53.04 32.8457 53.1053 32.8056 53.161 32.7541C53.2167 32.7026 53.2617 32.6406 53.2934 32.5717C53.3251 32.5028 53.343 32.4284 53.3459 32.3526C53.3489 32.2768 53.3369 32.2011 53.3106 32.13C53.2843 32.0588 53.2443 31.9935 53.1927 31.9379L53.1955 31.924ZM50.9304 27.2972C51.1625 27.5182 51.2287 28.7584 51.2508 29.1645V29.228C51.2523 29.252 51.2628 29.2745 51.2802 29.2909C51.2977 29.3073 51.3208 29.3165 51.3448 29.3164C51.3577 29.3164 51.3705 29.3138 51.3824 29.3088C51.3943 29.3038 51.4051 29.2964 51.4141 29.2871C51.4231 29.2779 51.4302 29.2669 51.4349 29.2548C51.4396 29.2428 51.4418 29.2299 51.4414 29.217C51.4276 28.996 51.4138 28.7888 51.3945 28.5458C52.0353 29.7501 52.0271 29.9904 51.7646 30.3744L50.2039 28.6783C50.226 28.4265 50.226 28.1733 50.2039 27.9215C50.2027 27.9014 50.1951 27.8822 50.1821 27.8668C50.1692 27.8514 50.1517 27.8405 50.1321 27.8358C49.9995 27.8027 49.7261 27.7557 49.3034 27.6894L48.7012 27.0375C50.2122 27.1149 50.8503 27.2226 50.9304 27.2972ZM39.9751 26.0707C39.9852 26.0546 39.9905 26.0359 39.9905 26.0169C39.9905 25.9978 39.9852 25.9792 39.9751 25.963C39.5083 25.3221 39.9254 24.8774 40.1215 25.3332C40.1851 25.4851 40.2707 25.5045 40.3287 25.4906C40.511 25.4547 40.5718 25.057 40.5884 24.8222C40.7141 24.8406 40.8367 24.8759 40.953 24.9271C41.0193 26.1094 41.1187 27.0292 40.953 27.4767C40.9309 27.5403 40.9171 27.59 40.837 27.6038C40.7569 27.6176 40.442 27.5624 39.8398 27.1259C39.8255 27.1155 39.8085 27.1093 39.7909 27.1081C39.7732 27.1069 39.7556 27.1107 39.74 27.1191C39.7244 27.1274 39.7115 27.14 39.7028 27.1554C39.694 27.1708 39.6898 27.1884 39.6906 27.206C39.716 27.7731 39.7788 28.3378 39.8785 28.8966C38.6994 28.8505 37.5187 28.9301 36.3565 29.1341C37.8316 28.2143 39.4917 26.8166 39.9751 26.0707ZM24.23 44.7909C23.9897 44.7605 23.893 44.6831 23.8875 44.6638C23.882 44.6444 23.9317 44.5616 24.3516 44.498C24.9761 44.4087 25.5828 44.2223 26.1498 43.9456C26.1646 43.9397 26.1776 43.9299 26.1873 43.9173C26.1971 43.9046 26.2032 43.8896 26.2051 43.8738C26.259 43.5291 26.3831 43.1991 26.5697 42.9042C26.667 42.9119 26.7613 42.9411 26.8459 42.9898C27.2658 43.2301 27.3597 43.8185 27.1056 44.6085C26.8129 44.4433 26.5435 44.2399 26.3045 44.0036C26.2869 43.9861 26.2631 43.9762 26.2382 43.9762C26.2134 43.9762 26.1895 43.9861 26.1719 44.0036C26.1628 44.0124 26.1556 44.0229 26.1506 44.0345C26.1457 44.0461 26.1431 44.0586 26.1431 44.0713C26.1431 44.0839 26.1457 44.0964 26.1506 44.108C26.1556 44.1197 26.1628 44.1302 26.1719 44.1389L26.1912 44.161C25.8515 44.3986 25.5753 44.5837 25.3377 44.7273C24.97 44.7887 24.5968 44.81 24.2245 44.7909H24.23ZM24.4786 45.6969C24.2024 45.7521 24.1223 45.7135 24.1112 45.6969C24.1002 45.6803 24.2328 45.4759 24.6637 45.2908C25.2503 45.0177 25.8059 44.6825 26.3211 44.2909C26.3901 44.3516 26.4647 44.4124 26.5393 44.4704C26.3321 44.7467 26.1553 44.9704 25.9868 45.161C25.5052 45.3989 24.9971 45.5788 24.4731 45.6969H24.4786ZM25.3073 46.7051C25.0311 46.8709 24.8764 46.8543 24.8598 46.8294C24.8432 46.8046 24.8598 46.5946 25.3073 46.172C25.8252 45.6917 26.2935 45.1605 26.705 44.5864C26.8128 44.661 26.926 44.7301 27.0393 44.7936C26.9481 45.0698 26.8487 45.3212 26.7409 45.5836C26.3096 46.0145 25.8272 46.3912 25.3045 46.7051H25.3073ZM28.6221 44.0174C28.5199 44.3876 27.3569 46.3101 26.647 47.1526C26.3874 47.4592 26.183 47.5228 26.1526 47.5034C26.1222 47.4841 26.0697 47.3874 26.3763 46.8101C26.7086 46.1537 26.9956 45.4754 27.2354 44.7798C27.7271 43.3987 27.1249 42.9401 26.926 42.8269C26.736 42.7237 26.5161 42.6899 26.3039 42.7312C26.0917 42.7725 25.9005 42.8864 25.7631 43.0534C25.1167 43.8323 24.7383 44.0091 24.6747 43.987C24.6747 43.987 24.6333 43.918 24.7521 43.6307C24.9372 43.1887 25.0477 42.8987 25.2189 42.4512C25.3515 42.1059 26.2962 41.6225 26.3736 41.3463C26.4242 41.1114 26.4437 40.8708 26.4316 40.6308C27.1588 40.5939 27.8878 40.6374 28.6055 40.7607C28.6359 41.1999 28.7353 43.6031 28.6304 44.0174H28.6221ZM31.1938 52.238C31.2181 52.2315 31.239 52.2157 31.2519 52.1941C31.2648 52.1724 31.2687 52.1465 31.2628 52.122C31.2603 52.1098 31.2552 52.0984 31.2481 52.0882C31.2409 52.0781 31.2317 52.0695 31.2211 52.063C31.2105 52.0566 31.1987 52.0523 31.1864 52.0506C31.1741 52.0489 31.1616 52.0497 31.1496 52.0529L30.2518 52.2546C29.9756 47.6996 29.5999 43.6086 30.749 40.5673C31.0142 39.8683 31.4174 39.23 31.9347 38.6904C32.4521 38.1508 33.0728 37.7209 33.76 37.4266C35.0351 36.8806 36.4191 36.6367 37.804 36.7139C35.9366 39.1613 34.5831 44.3102 33.2986 53.8402C30.0889 54.8456 25.3432 55.945 23.545 56.3262C23.393 55.6246 23.0919 54.5418 22.5837 54.1827C23.1886 54.0308 30.7325 52.3485 31.2021 52.238H31.1938ZM22.1693 60.6327C22.0174 61.6381 21.755 62.9309 21.1804 63.522C21.7053 62.0221 21.3738 56.5693 20.628 55.7323C21.1335 55.6108 21.7329 55.4561 23.0118 55.1578C23.3432 56.0809 23.5359 57.0481 23.5836 58.0278C22.5063 58.3676 22.3351 59.4973 22.1693 60.6327ZM48.0963 59.1603C49.0189 59.815 50.1736 60.5194 50.4387 61.2459C49.2869 60.2929 44.1213 58.7211 43.0551 59.0692C43.2264 57.7985 43.2153 57.746 43.3976 56.5251C44.3425 56.4939 45.2878 56.5709 46.2152 56.7544C46.2262 57.5472 46.5384 58.0499 48.0963 59.1603ZM45.0578 43.8489C47.0991 45.5477 47.356 46.1527 47.3532 49.2382V57.014C47.0549 56.7378 46.3422 56.4947 44.8092 56.3704C43.4722 56.2627 42.5993 56.3456 42.2485 56.6163C42.2844 54.2131 42.2927 48.694 42.2485 47.9509C42.2477 47.9323 42.2411 47.9143 42.2298 47.8995C42.2184 47.8847 42.2028 47.8737 42.185 47.8681C41.0359 47.4703 39.5718 46.9786 38.4034 46.6057C38.373 45.2991 38.315 42.3158 38.4034 41.0341C38.5636 40.4623 38.721 39.9292 38.8813 39.3961C41.0217 40.7664 43.0855 42.2529 45.0633 43.8489H45.0578ZM35.1135 53.6882C34.6246 55.7296 34.1273 56.7682 31.6661 57.4781C29.3541 58.1493 24.9869 59.0499 23.5726 59.373C23.9483 58.699 23.7356 57.2516 23.5864 56.4947C25.3985 56.1163 30.1966 55.0031 33.4147 53.9893C33.4318 53.9839 33.4471 53.9738 33.4588 53.9601C33.4705 53.9464 33.4782 53.9298 33.481 53.912C34.782 44.2439 36.1466 39.106 38.0388 36.7277C38.5323 36.7558 39.0232 36.8177 39.5083 36.9128C37.9587 41.2054 37.1023 45.3571 35.1107 53.6882H35.1135ZM50.0051 33.877C49.0397 35.2937 47.9928 36.6532 46.8698 37.9486C45.6379 39.3933 44.5412 39.5894 43.1849 38.258C42.312 37.3989 40.0608 34.2527 39.6216 33.5317C39.6097 33.514 39.5923 33.5007 39.5721 33.4938C39.5519 33.487 39.5299 33.4871 39.5098 33.494C39.4896 33.501 39.4723 33.5144 39.4605 33.5322C39.4488 33.55 39.4432 33.5712 39.4448 33.5925C39.5725 34.5872 39.6325 35.5895 39.6243 36.5923C39.605 36.6393 39.5884 36.6863 39.5718 36.7332C37.6078 36.3465 35.456 36.457 33.7019 37.2442C33.6329 35.7802 33.329 33.5593 32.8954 32.2279C32.8916 32.2161 32.8855 32.2051 32.8775 32.1957C32.8695 32.1862 32.8597 32.1784 32.8486 32.1728C32.8376 32.1671 32.8255 32.1637 32.8132 32.1627C32.8008 32.1618 32.7884 32.1633 32.7766 32.1671C32.7525 32.1753 32.7326 32.1927 32.7212 32.2154C32.7099 32.2382 32.7079 32.2645 32.7158 32.2887C32.8395 32.6836 32.9428 33.0847 33.0252 33.4903C32.3554 34.2464 31.6415 34.9621 30.8872 35.6338C30.4756 35.7719 30.0944 35.91 29.7988 36.0205C29.7823 36.027 29.7679 36.0379 29.7572 36.0521C29.7465 36.0662 29.7398 36.083 29.738 36.1006C29.6662 36.7802 29.5613 39.501 29.5364 40.9209C29.2948 40.7602 29.0217 40.6528 28.7353 40.606H28.7215C27.9564 40.443 25.8929 40.3104 25.2382 40.722C25.2636 39.3436 25.365 37.9678 25.5421 36.6006C25.7879 34.5317 25.9537 33.877 28.1 32.5373C31.6164 30.3274 35.6853 29.0816 39.2652 29.0816C41.5828 29.0816 42.0938 29.6341 45.287 34.33C45.2937 34.3404 45.3024 34.3494 45.3127 34.3563C45.3229 34.3632 45.3345 34.368 45.3466 34.3703C45.3588 34.3726 45.3713 34.3725 45.3833 34.3698C45.3954 34.3672 45.4068 34.3621 45.4169 34.3549C45.4379 34.3408 45.4526 34.319 45.4578 34.2942C45.4629 34.2694 45.4582 34.2436 45.4445 34.2223C45.2705 33.9681 45.1047 33.7251 44.9445 33.4958C45.4113 32.8909 46.6792 31.4959 47.1102 31.0097C47.7372 30.8606 48.5521 31.2169 49.0438 31.6285C49.3747 31.8969 49.6352 32.242 49.8027 32.6338C49.9702 33.0256 50.0396 33.4523 50.0051 33.877ZM50.0051 32.6395C49.7995 32.1322 49.4593 31.6906 49.0212 31.3625C48.583 31.0344 48.0636 30.8322 47.519 30.7777C47.5604 29.8385 47.4195 29.3441 47.4195 28.8607C47.4195 28.6645 47.7427 28.1673 48.0714 27.358C48.135 27.2033 48.2151 27.1453 48.2538 27.1591C48.3532 27.1867 48.4913 27.5016 48.3781 28.1314C48.1626 29.3523 48.9305 29.9573 49.5962 29.717L51.0768 31.3274C50.6873 31.8218 50.2316 32.3191 50.0189 32.6395H50.0051ZM48.5327 28.2944C48.5327 28.2502 48.5327 28.2087 48.5521 28.1646C48.6626 27.543 48.5521 27.0596 48.2924 26.974C48.2344 26.9574 48.0162 26.9298 47.8808 27.2861C47.8532 27.358 47.8228 27.427 47.7952 27.4933L47.519 27.1674L47.2427 26.2862L48.0991 26.6425L52.1873 31.1092C51.9423 31.2129 51.7417 31.3997 51.621 31.6368L48.5327 28.2944ZM51.7508 31.7915C51.796 31.6672 51.8694 31.555 51.9652 31.464C52.0611 31.3729 52.1768 31.3053 52.3033 31.2666L52.4469 31.4213C52.201 31.5232 51.9993 31.7092 51.8779 31.9461L51.7508 31.7915ZM53.0436 32.5953C53.0063 32.631 52.9622 32.6588 52.914 32.6771C52.8657 32.6954 52.8142 32.7037 52.7627 32.7016C52.7111 32.6996 52.6605 32.6871 52.6138 32.6651C52.5672 32.643 52.5254 32.6117 52.4911 32.5732L52.0547 32.0981C52.1022 31.9724 52.1784 31.8595 52.2772 31.7684C52.376 31.6773 52.4946 31.6105 52.6237 31.5732L53.0436 32.0428C53.081 32.0784 53.1108 32.1213 53.1312 32.1688C53.1516 32.2163 53.1621 32.2674 53.1621 32.3191C53.1621 32.3707 53.1516 32.4219 53.1312 32.4693C53.1108 32.5168 53.081 32.5597 53.0436 32.5953Z" fill="#3B29AB"/>
<path d="M59.2388 41.9043C57.768 41.9037 56.33 42.3394 55.1068 43.1561C53.8836 43.9729 52.93 45.1341 52.3668 46.4928C51.8035 47.8515 51.6559 49.3468 51.9425 50.7894C52.2291 52.2321 52.9371 53.5573 53.977 54.5975C55.0168 55.6378 56.3418 56.3463 57.7843 56.6334C59.2269 56.9206 60.7222 56.7735 62.0811 56.2107C63.4401 55.648 64.6016 54.6949 65.4188 53.472C66.236 52.249 66.6722 50.8112 66.6722 49.3404C66.6664 47.3705 65.8814 45.4829 64.4887 44.0897C63.0961 42.6965 61.2087 41.9108 59.2388 41.9043ZM59.2388 56.5859C57.9849 56.5854 56.7526 56.2596 55.6622 55.6403C54.5719 55.0211 53.6609 54.1296 53.0181 53.0529C56.797 50.6552 59.5261 46.8239 60.7139 42.2468C62.4694 42.6121 64.0271 43.6153 65.0858 45.0625C66.1445 46.5098 66.6289 48.2981 66.4454 50.0818C66.2619 51.8655 65.4236 53.5178 64.0924 54.7192C62.7613 55.9206 61.0319 56.5857 59.2388 56.5859Z" fill="#3B29AB"/>
</svg>
