<svg width="24" height="24" viewBox="0 0 24 24" fill="none" xmlns="http://www.w3.org/2000/svg">
<path d="M8.81247 5.75624C8.58831 5.32773 8.53839 4.82918 8.67313 4.36472C8.80787 3.90027 9.11686 3.50584 9.53555 3.26382C9.95424 3.0218 10.4502 2.95092 10.92 3.06597C11.3897 3.18103 11.7968 3.47312 12.0562 3.88124L14.8687 8.74687" stroke="#DF7171" stroke-width="1.5" stroke-linecap="round" stroke-linejoin="round"/>
<path d="M6.31876 8.925L4.81876 6.32813C4.5946 5.89961 4.54467 5.40106 4.67941 4.93661C4.81416 4.47215 5.12314 4.07772 5.54183 3.8357C5.96052 3.59369 6.45653 3.5228 6.92625 3.63786C7.39597 3.75291 7.80307 4.04501 8.06251 4.45313L11.25 9.975" stroke="#DF7171" stroke-width="1.5" stroke-linecap="round" stroke-linejoin="round"/>
<path d="M14.4375 15.4969C14.1905 15.0711 14.0299 14.6008 13.965 14.1128C13.9001 13.6249 13.9322 13.1289 14.0593 12.6534C14.1865 12.1778 14.4063 11.7321 14.706 11.3416C15.0058 10.9512 15.3797 10.6238 15.8063 10.3781L14.8688 8.74688C14.6201 8.31549 14.553 7.80299 14.6823 7.32214C14.8115 6.84128 15.1264 6.43145 15.5578 6.18281C15.9892 5.93417 16.5017 5.86709 16.9826 5.99631C17.4634 6.12553 17.8733 6.44049 18.1219 6.87188L19.9969 10.125C20.9915 11.8481 21.2608 13.8957 20.7457 15.8173C20.2305 17.739 18.9731 19.3773 17.25 20.3719C15.5269 21.3664 13.4794 21.6358 11.5577 21.1206C9.63603 20.6055 7.99771 19.3481 7.00315 17.625L3.06565 10.8C2.94254 10.5864 2.8627 10.3506 2.8307 10.1062C2.7987 9.86172 2.81516 9.61336 2.87915 9.37526C3.00837 8.89441 3.32332 8.48458 3.75471 8.23594C4.18611 7.9873 4.6986 7.92021 5.17946 8.04943C5.66031 8.17866 6.07014 8.49361 6.31878 8.925L8.38128 12.4969" stroke="#DF7171" stroke-width="1.5" stroke-linecap="round" stroke-linejoin="round"/>
<path d="M7.60312 22.5C6.32924 21.6214 5.2688 20.468 4.5 19.125" stroke="#DF7171" stroke-width="1.5" stroke-linecap="round" stroke-linejoin="round"/>
<path d="M16.5 2.90625C17.3558 2.90393 18.1969 3.12824 18.9379 3.55637C19.6789 3.9845 20.2933 4.60119 20.7188 5.34375" stroke="#DF7171" stroke-width="1.5" stroke-linecap="round" stroke-linejoin="round"/>
</svg>
