<svg width="27" height="28" viewBox="0 0 27 28" fill="none" xmlns="http://www.w3.org/2000/svg">
<path fill-rule="evenodd" clip-rule="evenodd" d="M15.6861 20.4274V17.2C15.6861 14.3047 13.7196 11.8657 11.0556 11.1322C10.7919 10.468 10.1475 10 9.38613 10C8.62473 10 7.98033 10.468 7.71663 11.1322C5.05263 11.8666 3.08613 14.3047 3.08613 17.2V20.4274L1.54983 21.9637C1.38063 22.132 1.28613 22.3606 1.28613 22.6V24.4C1.28613 24.8977 1.68843 25.3 2.18613 25.3H16.5861C17.0838 25.3 17.4861 24.8977 17.4861 24.4V22.6C17.4861 22.3606 17.3916 22.132 17.2224 21.9637L15.6861 20.4274ZM15.6861 23.5H3.08613V22.9726L4.62243 21.4363C4.79163 21.268 4.88613 21.0394 4.88613 20.8V17.2C4.88613 14.7187 6.90483 12.7 9.38613 12.7C11.8674 12.7 13.8861 14.7187 13.8861 17.2V20.8C13.8861 21.0394 13.9806 21.268 14.1498 21.4363L15.6861 22.9726V23.5ZM9.38581 28C10.5657 28 11.5521 27.2494 11.922 26.2H6.84961C7.21951 27.2494 8.20591 28 9.38581 28Z" fill="#435971"/>
<path fill-rule="evenodd" clip-rule="evenodd" d="M15.6861 20.4274V17.2C15.6861 14.3047 13.7196 11.8657 11.0556 11.1322C10.7919 10.468 10.1475 10 9.38613 10C8.62473 10 7.98033 10.468 7.71663 11.1322C5.05263 11.8666 3.08613 14.3047 3.08613 17.2V20.4274L1.54983 21.9637C1.38063 22.132 1.28613 22.3606 1.28613 22.6V24.4C1.28613 24.8977 1.68843 25.3 2.18613 25.3H16.5861C17.0838 25.3 17.4861 24.8977 17.4861 24.4V22.6C17.4861 22.3606 17.3916 22.132 17.2224 21.9637L15.6861 20.4274ZM15.6861 23.5H3.08613V22.9726L4.62243 21.4363C4.79163 21.268 4.88613 21.0394 4.88613 20.8V17.2C4.88613 14.7187 6.90483 12.7 9.38613 12.7C11.8674 12.7 13.8861 14.7187 13.8861 17.2V20.8C13.8861 21.0394 13.9806 21.268 14.1498 21.4363L15.6861 22.9726V23.5ZM9.38581 28C10.5657 28 11.5521 27.2494 11.922 26.2H6.84961C7.21951 27.2494 8.20591 28 9.38581 28Z" fill="white" fill-opacity="0.2"/>
<circle cx="18" cy="11" r="9" fill="#FF3E1D"/>
<path d="M18.3142 5.601H19.7117V11.4835H21.2392V12.686H19.7117V15H18.3597V12.686H13.9592V11.464L18.3142 5.601ZM15.2722 11.4835H18.3402V7.369L15.2722 11.4835Z" fill="white"/>
</svg>
