<svg width="31" height="31" viewBox="0 0 31 31" fill="none" xmlns="http://www.w3.org/2000/svg">
<rect width="31" height="31" rx="4" fill="#5EADA8"/>
<path d="M7.19687 17.1906C6.35627 15.7744 6.06163 14.1 6.36829 12.4819C6.67496 10.8638 7.56182 9.41334 8.86232 8.40291C10.1628 7.39247 11.7875 6.89159 13.4312 6.99435C15.0749 7.0971 16.6245 7.79642 17.7891 8.96095C18.9536 10.1255 19.6529 11.6751 19.7557 13.3188C19.8584 14.9625 19.3575 16.5872 18.3471 17.8877C17.3367 19.1882 15.8862 20.0751 14.2681 20.3817C12.65 20.6884 10.9756 20.3937 9.55937 19.5531L7.225 20.2188C7.12882 20.2458 7.02717 20.2467 6.9305 20.2215C6.83384 20.1962 6.74565 20.1456 6.675 20.075C6.60436 20.0044 6.5538 19.9162 6.52853 19.8195C6.50327 19.7228 6.50421 19.6212 6.53125 19.525L7.19687 17.1906Z" stroke="white" stroke-width="1.5" stroke-linecap="round" stroke-linejoin="round"/>
<path d="M12.6344 20.4906C12.9648 21.4327 13.5003 22.2896 14.2023 22.9994C14.9043 23.7092 15.7552 24.2543 16.6935 24.5951C17.6318 24.936 18.6341 25.0642 19.628 24.9705C20.6219 24.8768 21.5826 24.5634 22.4406 24.0531V24.0531L24.775 24.7187C24.8712 24.7458 24.9728 24.7467 25.0695 24.7215C25.1662 24.6962 25.2543 24.6456 25.325 24.575C25.3956 24.5043 25.4462 24.4162 25.4715 24.3195C25.4967 24.2228 25.4958 24.1212 25.4688 24.025L24.8031 21.6906C25.3974 20.6931 25.7239 19.5591 25.751 18.3983C25.7782 17.2375 25.505 16.0894 24.958 15.0653C24.4111 14.0411 23.6088 13.1756 22.629 12.5526C21.6492 11.9296 20.5251 11.5702 19.3656 11.5094" stroke="white" stroke-width="1.5" stroke-linecap="round" stroke-linejoin="round"/>
</svg>
