<svg width="30" height="22" viewBox="0 0 30 22" fill="none" xmlns="http://www.w3.org/2000/svg">
<g filter="url(#filter0_dd_0_12731)">
<g clip-path="url(#clip0_0_12731)">
<mask id="mask0_0_12731" style="mask-type:alpha" maskUnits="userSpaceOnUse" x="3" y="2" width="24" height="16">
<rect x="3" y="2" width="24" height="16" fill="white"/>
</mask>
<g mask="url(#mask0_0_12731)">
<path fill-rule="evenodd" clip-rule="evenodd" d="M3 2V18H27V2H3Z" fill="#F7FCFF"/>
<mask id="mask1_0_12731" style="mask-type:alpha" maskUnits="userSpaceOnUse" x="3" y="2" width="24" height="16">
<path fill-rule="evenodd" clip-rule="evenodd" d="M3 2V18H27V2H3Z" fill="white"/>
</mask>
<g mask="url(#mask1_0_12731)">
<path fill-rule="evenodd" clip-rule="evenodd" d="M3 2V7.33333H27V2H3Z" fill="#FF8C1A"/>
<path fill-rule="evenodd" clip-rule="evenodd" d="M3 12.6667V18H27V12.6667H3Z" fill="#5EAA22"/>
<path fill-rule="evenodd" clip-rule="evenodd" d="M12 10C12 11.4728 13.3431 12.6667 15 12.6667C16.6569 12.6667 18 11.4728 18 10C18 8.52725 16.6569 7.33334 15 7.33334C13.3431 7.33334 12 8.52725 12 10ZM17.25 10C17.25 11.1046 16.2426 12 15 12C13.7574 12 12.75 11.1046 12.75 10C12.75 8.89544 13.7574 8.00001 15 8.00001C16.2426 8.00001 17.25 8.89544 17.25 10Z" fill="#3D58DB"/>
<path fill-rule="evenodd" clip-rule="evenodd" d="M14.9958 10.5738L14.3704 12.623L14.7366 10.5248L13.2276 12.1707L14.5223 10.3864L12.3906 11.3444L14.3898 10.1824L12.004 10.2869L14.3621 9.94817L12.1348 9.18105L14.444 9.72415L12.7602 8.2181L14.6213 9.54911L13.7723 7.56453L14.8633 9.45331L14.9958 7.33334L15.1283 9.45331L16.2194 7.56453L15.3704 9.54911L17.2314 8.2181L15.5477 9.72415L17.8569 9.18105L15.6296 9.94817L17.9876 10.2869L15.6019 10.1824L17.6011 11.3444L15.4694 10.3864L16.7641 12.1707L15.255 10.5248L15.6213 12.623L14.9958 10.5738Z" fill="#3D58DB"/>
</g>
</g>
</g>
</g>
<defs>
<filter id="filter0_dd_0_12731" x="0" y="0" width="30" height="22" filterUnits="userSpaceOnUse" color-interpolation-filters="sRGB">
<feFlood flood-opacity="0" result="BackgroundImageFix"/>
<feColorMatrix in="SourceAlpha" type="matrix" values="0 0 0 0 0 0 0 0 0 0 0 0 0 0 0 0 0 0 127 0" result="hardAlpha"/>
<feOffset dy="1"/>
<feGaussianBlur stdDeviation="1"/>
<feColorMatrix type="matrix" values="0 0 0 0 0.0627451 0 0 0 0 0.0941176 0 0 0 0 0.156863 0 0 0 0.06 0"/>
<feBlend mode="normal" in2="BackgroundImageFix" result="effect1_dropShadow_0_12731"/>
<feColorMatrix in="SourceAlpha" type="matrix" values="0 0 0 0 0 0 0 0 0 0 0 0 0 0 0 0 0 0 127 0" result="hardAlpha"/>
<feOffset dy="1"/>
<feGaussianBlur stdDeviation="1.5"/>
<feColorMatrix type="matrix" values="0 0 0 0 0.0627451 0 0 0 0 0.0941176 0 0 0 0 0.156863 0 0 0 0.1 0"/>
<feBlend mode="normal" in2="effect1_dropShadow_0_12731" result="effect2_dropShadow_0_12731"/>
<feBlend mode="normal" in="SourceGraphic" in2="effect2_dropShadow_0_12731" result="shape"/>
</filter>
<clipPath id="clip0_0_12731">
<rect x="3" y="2" width="24" height="16" rx="1" fill="white"/>
</clipPath>
</defs>
</svg>
