<svg width="30" height="22" viewBox="0 0 30 22" fill="none" xmlns="http://www.w3.org/2000/svg">
<g filter="url(#filter0_dd_0_12729)">
<g clip-path="url(#clip0_0_12729)">
<mask id="mask0_0_12729" style="mask-type:alpha" maskUnits="userSpaceOnUse" x="3" y="2" width="24" height="16">
<rect x="3" y="2" width="24" height="16" fill="white"/>
</mask>
<g mask="url(#mask0_0_12729)">
<path fill-rule="evenodd" clip-rule="evenodd" d="M3 12.6667H27V18H3V12.6667Z" fill="#E31D1C"/>
<path fill-rule="evenodd" clip-rule="evenodd" d="M3 7.33334H27V12.6667H3V7.33334Z" fill="#2E42A5"/>
<path fill-rule="evenodd" clip-rule="evenodd" d="M3 2H27V7.33333H3V2Z" fill="#E31D1C"/>
<path fill-rule="evenodd" clip-rule="evenodd" d="M15 12.4933C16.5533 12.4933 17.8125 11.374 17.8125 9.99332C17.8125 8.6126 16.5533 7.49332 15 7.49332C13.4467 7.49332 12.1875 8.6126 12.1875 9.99332C12.1875 11.374 13.4467 12.4933 15 12.4933Z" fill="#F7FCFF"/>
</g>
</g>
</g>
<defs>
<filter id="filter0_dd_0_12729" x="0" y="0" width="30" height="22" filterUnits="userSpaceOnUse" color-interpolation-filters="sRGB">
<feFlood flood-opacity="0" result="BackgroundImageFix"/>
<feColorMatrix in="SourceAlpha" type="matrix" values="0 0 0 0 0 0 0 0 0 0 0 0 0 0 0 0 0 0 127 0" result="hardAlpha"/>
<feOffset dy="1"/>
<feGaussianBlur stdDeviation="1"/>
<feColorMatrix type="matrix" values="0 0 0 0 0.0627451 0 0 0 0 0.0941176 0 0 0 0 0.156863 0 0 0 0.06 0"/>
<feBlend mode="normal" in2="BackgroundImageFix" result="effect1_dropShadow_0_12729"/>
<feColorMatrix in="SourceAlpha" type="matrix" values="0 0 0 0 0 0 0 0 0 0 0 0 0 0 0 0 0 0 127 0" result="hardAlpha"/>
<feOffset dy="1"/>
<feGaussianBlur stdDeviation="1.5"/>
<feColorMatrix type="matrix" values="0 0 0 0 0.0627451 0 0 0 0 0.0941176 0 0 0 0 0.156863 0 0 0 0.1 0"/>
<feBlend mode="normal" in2="effect1_dropShadow_0_12729" result="effect2_dropShadow_0_12729"/>
<feBlend mode="normal" in="SourceGraphic" in2="effect2_dropShadow_0_12729" result="shape"/>
</filter>
<clipPath id="clip0_0_12729">
<rect x="3" y="2" width="24" height="16" rx="1" fill="white"/>
</clipPath>
</defs>
</svg>
