<svg width="24" height="24" viewBox="0 0 24 24" fill="none" xmlns="http://www.w3.org/2000/svg">
<g opacity="0.25">
<path d="M19.7157 3.36563L2.24068 8.2875C2.09193 8.32817 1.95932 8.41371 1.86094 8.53246C1.76255 8.65122 1.70316 8.79741 1.69087 8.95114C1.67857 9.10486 1.71396 9.25864 1.79221 9.39153C1.87047 9.52441 1.98779 9.62995 2.12818 9.69375L10.1532 13.4906C10.3104 13.5634 10.4366 13.6897 10.5094 13.8469L14.3063 21.8719C14.3701 22.0123 14.4756 22.1296 14.6085 22.2078C14.7414 22.2861 14.8952 22.3215 15.0489 22.3092C15.2026 22.2969 15.3488 22.2375 15.4676 22.1391C15.5864 22.0407 15.6719 21.9081 15.7126 21.7594L20.6344 4.28438C20.6717 4.15685 20.674 4.02165 20.6411 3.89293C20.6082 3.76421 20.5412 3.64672 20.4473 3.55277C20.3533 3.45882 20.2359 3.39188 20.1071 3.35895C19.9784 3.32602 19.8432 3.32833 19.7157 3.36563V3.36563Z" stroke="#5EADA8" stroke-width="1.5" stroke-linecap="round" stroke-linejoin="round"/>
<path d="M10.3969 13.6031L14.6344 9.36563" stroke="#5EADA8" stroke-width="1.5" stroke-linecap="round" stroke-linejoin="round"/>
</g>
</svg>
